<?xml version="1.0" encoding="utf-8"?>
<!-- Generator: Adobe Illustrator 18.1.1, SVG Export Plug-In . SVG Version: 6.00 Build 0)  -->
<svg version="1.1" id="Layer_1" xmlns="http://www.w3.org/2000/svg" xmlns:xlink="http://www.w3.org/1999/xlink" x="0px" y="0px"
	 viewBox="357.5 -51.4 215.2 153.3" enable-background="new 357.5 -51.4 215.2 153.3" xml:space="preserve">
<g>
	<path d="M569.2,87.5l-60.6-65.7l60.6-60.7c1.3-1.3,3.4-0.4,3.4,1.4V86.2C572.6,88,570.4,88.8,569.2,87.5z M476.7,53.8
		c-3.5,3.5-8.2,5.4-13.1,5.4h-0.2c-5,0-9.8-2-13.4-5.5l-18-17.9l-61.6,62.7c-1.2,1.3-0.3,3.4,1.4,3.4H559c1.7,0,2.6-2.1,1.5-3.3
		l-61.7-66.9L476.7,53.8z M463.4,45.3L463.4,45.3c1.3,0,2.6-0.5,3.5-1.5L558.6-48c1.3-1.3,0.4-3.4-1.4-3.4h-188
		c-1.8,0-2.7,2.1-1.4,3.4l92,91.9C460.8,44.8,462.1,45.3,463.4,45.3z M357.5-33.9V87c0,1.8,2.2,2.7,3.4,1.4L422.2,26l-61.3-61.2
		C359.6-36.5,357.5-35.6,357.5-33.9z"/>
</g>
</svg>
