<?xml version="1.0" encoding="utf-8"?>
<!-- Generator: Adobe Illustrator 18.1.1, SVG Export Plug-In . SVG Version: 6.00 Build 0)  -->
<svg version="1.1" id="Layer_1" xmlns="http://www.w3.org/2000/svg" xmlns:xlink="http://www.w3.org/1999/xlink" x="0px" y="0px"
	 viewBox="559.1 -55.4 17.7 12.6" enable-background="new 559.1 -55.4 17.7 12.6" xml:space="preserve">
<g>
	<path fill="#BB5139" d="M576.5-44l-5-5.4l5-5c0.1-0.1,0.3,0,0.3,0.1v10.2C576.8-43.9,576.6-43.9,576.5-44z M568.9-46.7
		c-0.3,0.3-0.7,0.4-1.1,0.4h0c-0.4,0-0.8-0.2-1.1-0.5l-1.5-1.5l-5.1,5.2c-0.1,0.1,0,0.3,0.1,0.3h15.4c0.1,0,0.2-0.2,0.1-0.3
		l-5.1-5.5L568.9-46.7z M567.8-47.4L567.8-47.4c0.1,0,0.2,0,0.3-0.1l7.5-7.6c0.1-0.1,0-0.3-0.1-0.3h-15.5c-0.1,0-0.2,0.2-0.1,0.3
		l7.6,7.6C567.6-47.5,567.7-47.4,567.8-47.4z M559.1-54v9.9c0,0.1,0.2,0.2,0.3,0.1l5-5.1l-5-5C559.3-54.2,559.1-54.1,559.1-54z"/>
</g>
</svg>
