<?xml version="1.0" encoding="utf-8"?>
<!-- Generator: Adobe Illustrator 18.1.1, SVG Export Plug-In . SVG Version: 6.00 Build 0)  -->
<svg version="1.1" id="Layer_1" xmlns="http://www.w3.org/2000/svg" xmlns:xlink="http://www.w3.org/1999/xlink" x="0px" y="0px"
	 viewBox="249.6 -104.5 457.5 259" enable-background="new 249.6 -104.5 457.5 259" xml:space="preserve">
<g>
	<path fill="#BB5139" d="M692-59.7c3.8,0,7.2,2.6,8.2,6.4c1.1,4.3-1.2,8.7-5.4,10.1l-47.2,16.8c-0.6,0.2-1.2,0.3-1.8,0.4L469.9-3.3
		l187.5-9.2c4.6-0.2,8.6,3.3,8.9,7.9c0.2,3.1-1.3,6-3.7,7.6l37.1,5c4.6,0.6,7.9,4.9,7.3,9.6c-0.6,4.6-4.9,7.9-9.5,7.3L657,19.4
		l-197.6,4L266.2,41.8c-4.8,0.6-8.8-3-9.3-7.6c-0.4-4.7,3-8.8,7.7-9.3l14.2-1.4c-0.7-0.9-1.2-1.9-1.4-3.1c-0.9-3.9,0.9-7.9,4.5-9.6
		L299.9,2c0.8-0.4,1.7-0.7,2.7-0.8l80-10.3l308-50.4C691.1-59.6,691.5-59.7,692-59.7z"/>
	<path fill="#BB5139" d="M403.7-73.7c2.9,0,5.7,1.5,7.3,4.2c2.3,3.9,1.1,9-2.8,11.5L285,20.2c74.7,34.1,124.1,56.4,131.8,59.5
		c1.6,0.4,3.1,1.2,4.3,2.4c0.9,0.9,1.6,2,2,3.3c1.5,2.4,8.1,12.1,14,20.7c2.2,3.2,1.9,7.4-0.6,10.3c-2.5,2.9-6.7,3.8-10.1,2.1
		l-172-83.6c-2.8-1.3-4.6-4.1-4.8-7.2c-0.1-1.6,0.3-3.2,1-4.6c-2.3-1.5-3.7-4-3.8-6.8c-0.1-3.2,1.6-6.2,4.4-7.8l148.3-81.2
		C400.9-73.4,402.3-73.7,403.7-73.7z"/>
	<path fill="#BB5139" d="M430.1-104.5c3.1,0,6,1.7,7.5,4.5c2.2,4.2,0.6,9.3-3.6,11.5L273-4l162.7,143.7c3.5,3.1,3.8,8.5,0.7,12
		c-3.1,3.5-8.5,3.9-12,0.7L252.5,0.5c-2.1-1.8-3.1-4.6-2.8-7.4c0.3-2.8,2-5.2,4.5-6.5l172-90.2C427.4-104.2,428.8-104.5,430.1-104.5
		z"/>
</g>
</svg>
