<?xml version="1.0" encoding="utf-8"?>
<!-- Generator: Adobe Illustrator 18.1.1, SVG Export Plug-In . SVG Version: 6.00 Build 0)  -->
<svg version="1.1" id="Layer_1" xmlns="http://www.w3.org/2000/svg" xmlns:xlink="http://www.w3.org/1999/xlink" x="0px" y="0px"
	 viewBox="246.9 -104.5 460.2 259" enable-background="new 246.9 -104.5 460.2 259" xml:space="preserve">
<g>
	<path fill="#231F20" d="M262,109.7c-3.8,0-7.2-2.6-8.2-6.4c-1.1-4.3,1.2-8.7,5.4-10.1l47.2-16.8c0.6-0.2,1.2-0.3,1.8-0.4
		l175.9-22.7l-187.5,9.2c-4.6,0.2-8.6-3.3-8.9-7.9c-0.2-3.1,1.3-6,3.7-7.6l-37.1-5c-4.6-0.6-7.9-4.9-7.3-9.6
		c0.6-4.6,4.9-7.9,9.5-7.3l40.5,5.4l197.6-4L687.8,8.2c4.8-0.6,8.8,3,9.3,7.6c0.4,4.7-3,8.8-7.7,9.3l-14.2,1.4
		c0.7,0.9,1.2,1.9,1.4,3.1c0.9,3.9-0.9,7.9-4.5,9.6L654.1,48c-0.8,0.4-1.7,0.7-2.7,0.8l-80,10.3l-308,50.4
		C263,109.7,262.5,109.7,262,109.7z"/>
	<path fill="#231F20" d="M550.3,123.7c-2.9,0-5.7-1.5-7.3-4.2c-2.3-3.9-1.1-9,2.8-11.5L669,29.8C594.3-4.3,544.9-26.6,537.2-29.7
		c-1.6-0.4-3.1-1.2-4.3-2.4c-0.9-0.9-1.6-2-2-3.2c-1.5-2.4-8.1-12.1-14-20.7c-2.2-3.2-1.9-7.4,0.6-10.3c2.5-2.9,6.7-3.8,10.1-2.1
		l172,83.6c2.8,1.3,4.6,4.1,4.8,7.2c0.1,1.6-0.3,3.2-1,4.6c2.3,1.5,3.7,4,3.8,6.8c0.1,3.2-1.6,6.2-4.4,7.8l-148.3,81.2
		C553.1,123.4,551.7,123.7,550.3,123.7z"/>
	<path fill="#231F20" d="M523.9,154.5c-3.1,0-6-1.7-7.5-4.5c-2.2-4.2-0.6-9.3,3.6-11.5L681,54L518.3-89.6c-3.5-3.1-3.8-8.5-0.7-12
		c3.1-3.5,8.5-3.9,12-0.7l172,151.8c2.1,1.8,3.1,4.6,2.8,7.4c-0.3,2.8-2,5.2-4.5,6.5l-172,90.2C526.6,154.2,525.2,154.5,523.9,154.5
		z"/>
</g>
</svg>
