<?xml version="1.0" encoding="utf-8"?>
<!-- Generator: Adobe Illustrator 18.1.1, SVG Export Plug-In . SVG Version: 6.00 Build 0)  -->
<svg version="1.1" id="Layer_5" xmlns="http://www.w3.org/2000/svg" xmlns:xlink="http://www.w3.org/1999/xlink" x="0px" y="0px"
	 viewBox="221 -231 512 512" enable-background="new 221 -231 512 512" xml:space="preserve">
<path d="M733,217c0,35.3-28.7,64-64,64h-32c-35.4,0-64-28.6-64-64c0-7.9-0.4-15.6-1-23.3c-0.1-1.3-0.2-2.6-0.3-3.9
	c-0.7-7.3-1.7-14.5-2.9-21.7c-0.2-1.4-0.5-2.8-0.8-4.1c-1.4-7.2-2.9-14.3-4.8-21.3c-0.3-1-0.6-2-0.9-3c-2-7.2-4.2-14.4-6.8-21.4
	c0-0.1-0.1-0.2-0.1-0.3c-2.6-7-5.5-13.9-8.6-20.7c-0.4-1-0.8-2-1.3-2.9c-3.1-6.5-6.4-12.8-9.9-18.9c-0.6-1.1-1.2-2.2-1.9-3.3
	c-3.6-6.1-7.4-12.2-11.4-18c-0.6-0.8-1.1-1.6-1.7-2.4c-4.2-6-8.5-11.8-13.2-17.4c-0.1-0.2-0.3-0.3-0.4-0.5
	c-4.6-5.6-9.5-11-14.5-16.2c-0.8-0.9-1.6-1.8-2.5-2.6c-4.9-5-10-9.8-15.3-14.4c-0.9-0.8-1.9-1.7-2.9-2.5c-5.4-4.6-10.9-9-16.6-13.2
	c-0.8-0.6-1.7-1.1-2.5-1.7c-5.9-4.3-12-8.4-18.3-12.2c-0.1-0.1-0.2-0.1-0.3-0.2c-6.2-3.8-12.6-7.2-19.1-10.5
	c-1.2-0.6-2.3-1.2-3.5-1.8c-6.2-3.1-12.6-5.9-19.1-8.5c-1.4-0.6-2.7-1.1-4.1-1.6c-6.6-2.5-13.3-4.9-20.1-6.9
	c-1.1-0.3-2.2-0.6-3.2-0.9C340-66.9,313-71,285-71c-17.7,0-32,14.3-32,32v32c0,17.7,14.3,32,32,32c17.6,0,34.5,2.6,50.7,7
	c5,1.4,9.8,2.9,14.6,4.6c0.3,0.1,0.5,0.2,0.8,0.3c23.7,8.7,45.2,21.9,63.4,38.6c0.8,0.7,1.6,1.4,2.4,2.2c2.9,2.7,5.6,5.5,8.3,8.4
	c1.2,1.3,2.4,2.5,3.5,3.9c2.4,2.7,4.7,5.4,6.9,8.2c1.3,1.7,2.6,3.4,3.9,5.2c2,2.7,4.1,5.5,5.9,8.3c1.4,2.1,2.6,4.2,3.9,6.4
	c2.5,4.2,4.9,8.4,7.1,12.8c1.6,3.2,3.2,6.4,4.7,9.7c1,2.3,1.8,4.6,2.8,7c1.2,3.1,2.4,6.2,3.4,9.4c0.8,2.4,1.5,4.8,2.2,7.1
	c1,3.4,1.8,6.8,2.6,10.3c0.5,2.3,1,4.5,1.5,6.8c0.7,3.8,1.3,7.8,1.8,11.6c0.3,2.1,0.6,4.1,0.8,6.2c0.4,3.8,0.4,7.6,0.6,11.4
	c0.2,2.2,0.3,4.4,0.3,6.6c0,35.3-28.6,64-64,64h-24h-8c-35.3,0-64-28.6-64-64c0-17.7-14.3-32-32-32c-17.7,0-32,14.3-32,32
	c0,17.7,14.3,32,32,32c8.8,0,16,7.2,16,16c0,8.8-7.2,16-16,16c-35.3,0-64-28.7-64-64c0-35.4,28.6-64,64-64c35.3,0,64,28.6,64,64
	c0,17.7,14.3,32,32,32h8h24c17.7,0,32-14.3,32-32c0-24.2-5.5-47.1-15.2-67.7c-0.8-1.8-1.6-3.5-2.5-5.3c-1.2-2.3-2.5-4.6-3.7-6.9
	c-1-1.7-2-3.4-3.1-5c-1.3-2.1-2.6-4.2-4-6.2c-2.2-3.1-4.4-6.1-6.8-9.1c-1.4-1.7-2.9-3.4-4.3-5c-1.7-2-3.5-3.9-5.3-5.8
	c-1.5-1.5-3-3-4.5-4.5c-2-1.9-4-3.7-6-5.5c-1.3-1.1-2.6-2.3-3.9-3.4c-3.4-2.8-6.9-5.4-10.5-7.9c-1.1-0.7-2.2-1.3-3.2-2
	c-2.8-1.8-5.7-3.6-8.6-5.3c-1.5-0.8-3-1.6-4.6-2.4c-2.8-1.5-5.6-2.8-8.5-4.1c-1.4-0.6-2.8-1.3-4.2-1.9c-4.3-1.7-8.6-3.4-13-4.8
	c-0.5-0.2-1.1-0.3-1.6-0.5c-4-1.2-8.1-2.3-12.2-3.1c-1.5-0.3-3.1-0.6-4.7-0.9c-3.3-0.6-6.7-1.1-10.1-1.5c-1.5-0.2-2.9-0.4-4.4-0.5
	C294.9,57.3,290,57,285,57c-35.3,0-64-28.7-64-64v-32c0-35.3,28.6-64,64-64c5.2,0,10.4,0.1,15.5,0.4c1.9,0.1,3.7,0.3,5.6,0.4
	c3.4,0.2,6.9,0.4,10.2,0.8c1.8,0.2,3.5,0.4,5.3,0.6c3.4,0.4,6.8,0.8,10.1,1.3c2,0.3,4,0.6,6,1c2.9,0.5,5.7,1,8.5,1.5
	c2.3,0.5,4.5,0.9,6.8,1.4c2.9,0.6,5.9,1.3,8.8,2c1.9,0.5,3.9,1,5.8,1.5c2.9,0.8,5.7,1.6,8.5,2.4c2,0.6,4.1,1.2,6.2,1.9
	c2.6,0.8,5.2,1.7,7.8,2.6c2.2,0.8,4.5,1.5,6.7,2.4c2.2,0.8,4.4,1.7,6.6,2.6c2.4,1,4.8,1.9,7.2,2.9c2,0.9,4,1.8,6,2.7
	c5.1,2.3,10.1,4.7,15,7.3c1.5,0.8,3.1,1.6,4.6,2.4c2.6,1.4,5.1,2.9,7.7,4.3c1.7,0.9,3.3,1.8,5,2.8c2.6,1.6,5.2,3.2,7.8,4.9
	c1.4,0.9,2.9,1.8,4.3,2.7c2.5,1.7,5,3.4,7.5,5.1c1.6,1.1,3.2,2.2,4.8,3.4c2.3,1.7,4.5,3.3,6.7,5c1.6,1.2,3.1,2.4,4.6,3.6
	c2.4,1.9,4.7,3.8,7,5.8c1.2,1,2.4,2.1,3.6,3.1c2.5,2.2,5,4.3,7.4,6.6c0.8,0.7,1.6,1.5,2.4,2.2c22.6,21.4,42.2,46.1,57.8,73.4
	c0.2,0.3,0.4,0.7,0.6,1c2.1,3.7,4.1,7.4,6,11.1c0.2,0.5,0.5,1,0.7,1.4c2,3.8,3.8,7.7,5.6,11.6c0.1,0.2,0.2,0.4,0.3,0.6
	c1.9,4.1,3.7,8.2,5.4,12.4c0,0,0,0,0,0.1c8.8,21.6,15.3,44.4,19.2,68.1c2.8,17.1,4.4,34.7,4.4,52.6c0,17.7,14.3,32,32,32h32
	c17.7,0,32-14.3,32-32c0-25.9-2.5-51.2-7-75.8c-0.1-0.3-0.1-0.5-0.1-0.8c-1.1-6-2.4-12-3.8-17.9c0-0.2-0.1-0.5-0.1-0.7
	c-1.3-5.7-2.8-11.3-4.4-16.9c-0.2-0.7-0.4-1.5-0.6-2.2c-1.6-5.6-3.3-11.1-5.1-16.6c0-0.1-0.1-0.2-0.1-0.4
	C666,44.5,646.1,6.2,621-28.1c-0.1-0.1-0.1-0.2-0.2-0.3c-3.1-4.3-6.4-8.5-9.7-12.6c-0.7-0.8-1.3-1.7-2-2.5
	c-3.1-3.8-6.2-7.6-9.5-11.3c-0.9-1.1-1.8-2.1-2.8-3.2c-3.2-3.6-6.5-7.2-9.9-10.8c-0.9-1-1.9-2-2.8-2.9c-3.2-3.4-6.6-6.7-9.9-9.9
	c-1.3-1.2-2.5-2.4-3.8-3.6c-3.3-3.1-6.7-6.2-10.1-9.2c-1.2-1.1-2.5-2.2-3.8-3.3c-3.4-2.9-6.8-5.9-10.3-8.7c-1.6-1.3-3.2-2.5-4.9-3.8
	c-3.3-2.6-6.6-5.2-10-7.6c-1.7-1.2-3.4-2.4-5.1-3.6c-3.5-2.5-7-5-10.6-7.4c-0.8-0.5-1.5-1-2.3-1.5c-9-6-18.3-11.6-27.8-16.8
	c-0.5-0.3-1-0.6-1.5-0.9c-2.8-1.5-5.7-3-8.6-4.5c-3-1.5-5.9-3.1-8.9-4.5c-2.8-1.4-5.7-2.7-8.6-4c-2.9-1.3-5.8-2.7-8.7-3.9
	c-3.1-1.3-6.2-2.6-9.4-3.9c-3-1.2-5.9-2.4-8.9-3.5c-2.9-1.1-5.8-2.1-8.7-3.1c-3.4-1.2-6.8-2.4-10.2-3.5c-2.7-0.9-5.5-1.7-8.3-2.6
	c-3.4-1-6.9-2-10.4-2.9c-3-0.8-6-1.6-9-2.3c-3.4-0.8-6.7-1.6-10.1-2.3c-3.1-0.7-6.2-1.4-9.3-2c-3.5-0.7-7.1-1.3-10.7-1.9
	c-2.9-0.5-5.8-1-8.7-1.4c-4.2-0.6-8.5-1.1-12.8-1.6c-2.3-0.3-4.6-0.6-6.9-0.8c-4.8-0.5-9.7-0.8-14.5-1.1c-2-0.1-4-0.3-6-0.4
	c-1.6-0.1-3.2-0.1-4.8-0.1v-0.2c-4,0-8.1-1.6-11.1-4.7c-6.2-6.2-6.2-16.4,0-22.6c3.4-3.4,8-4.8,12.4-4.5
	C541.6-221.5,733-24.7,733,217L733,217z M237-199c-8.8,0-16-7.2-16-16c0-8.8,7.2-16,16-16c8.8,0,16,7.2,16,16
	C253-206.2,245.8-199,237-199L237-199z"/>
</svg>
